<?xml version="1.0" standalone="no"?>
<!DOCTYPE svg PUBLIC "-//W3C//DTD SVG 20010904//EN"
 "http://www.w3.org/TR/2001/REC-SVG-20010904/DTD/svg10.dtd">
<svg version="1.0" xmlns="http://www.w3.org/2000/svg"
 width="483.000000pt" height="483.000000pt" viewBox="0 0 483.000000 483.000000"
 preserveAspectRatio="xMidYMid meet">

<g transform="translate(0.000000,483.000000) scale(0.100000,-0.100000)"
fill="#000000" stroke="none">
<path d="M1597 3514 c-4 -4 -7 -243 -7 -531 l0 -523 220 0 220 0 0 70 0 70
-140 0 -140 0 0 165 0 165 120 0 120 0 0 70 0 70 -120 0 -120 0 0 150 0 149
138 3 137 3 0 70 0 70 -211 3 c-115 1 -213 -1 -217 -4z"/>
<path d="M2138 3015 c-2 -275 -2 -513 0 -528 l3 -28 76 3 75 3 0 188 0 187
134 0 c168 0 198 10 214 71 13 47 10 532 -3 560 -16 34 -50 39 -274 41 l-223
3 -2 -500z m352 165 l-2 -200 -97 0 -98 0 -2 155 c-1 86 1 176 5 200 l6 45 94
0 95 0 -1 -200z"/>
<path d="M3417 3514 c-4 -4 -7 -243 -7 -531 l0 -523 210 0 210 0 0 70 0 70
-130 0 -130 0 -2 458 -3 457 -70 3 c-39 1 -74 0 -78 -4z"/>
<path d="M987 3498 c-9 -7 -21 -26 -27 -41 -14 -39 -14 -903 0 -944 6 -17 22
-35 36 -42 33 -15 394 -15 427 0 40 18 47 50 47 205 l0 145 -77 -3 -78 -3 -3
-107 -3 -108 -99 0 -100 0 0 390 0 390 100 0 100 0 0 -105 0 -105 81 0 80 0
-3 149 c-4 206 15 191 -253 191 -153 0 -216 -3 -228 -12z"/>
<path d="M2781 3484 c-21 -26 -21 -36 -21 -501 l0 -474 25 -24 c24 -25 24 -25
234 -25 207 0 210 0 238 24 l28 24 3 449 c2 246 0 463 -3 481 -3 18 -15 42
-26 53 -18 18 -34 19 -238 19 l-220 0 -20 -26z m349 -494 l0 -391 -107 3 -108
3 -3 355 c-1 195 0 370 3 388 l6 32 104 0 105 0 0 -390z"/>
<path d="M914 2123 c-28 -64 -74 -215 -74 -243 0 -43 -10 -50 -71 -50 -56 0
-59 -1 -59 -25 0 -24 3 -25 59 -25 l58 0 6 -87 c10 -148 85 -363 130 -371 45
-9 47 3 17 86 -43 118 -69 273 -61 360 1 10 21 12 82 10 l81 -3 20 -52 c35
-95 131 -163 228 -163 94 0 192 68 226 156 l17 44 92 0 92 0 17 -44 c45 -119
182 -182 304 -142 62 21 124 80 148 142 l17 44 92 0 92 0 18 -46 c33 -88 131
-154 225 -154 94 0 192 66 225 154 l18 46 86 0 86 0 18 -49 c32 -91 130 -161
227 -161 94 0 192 68 225 154 l17 44 61 4 c34 3 65 3 70 1 24 -14 -5 -200 -53
-336 -16 -45 -26 -85 -24 -89 13 -20 55 -7 73 23 34 55 80 213 92 313 l12 96
79 0 c77 0 78 0 78 25 0 25 -1 25 -85 25 l-85 0 0 33 c0 48 -34 173 -70 261
-31 74 -33 76 -67 76 -40 0 -40 6 1 -102 29 -77 61 -240 52 -263 -4 -13 -18
-15 -67 -13 l-62 3 -12 47 c-52 206 -319 253 -437 77 -16 -24 -31 -60 -34 -81
l-7 -38 -88 0 -89 0 0 28 c0 45 -46 124 -93 158 -108 79 -218 72 -314 -21 -36
-36 -55 -63 -63 -95 -7 -25 -14 -51 -16 -57 -2 -9 -30 -13 -94 -13 l-90 0 0
28 c0 76 -82 172 -174 202 -74 24 -183 -6 -242 -67 -33 -35 -63 -100 -64 -135
l0 -28 -95 0 -95 0 0 28 c-1 97 -108 199 -221 210 -112 11 -235 -79 -255 -185
l-6 -33 -84 0 c-98 0 -94 -7 -68 117 13 65 33 126 69 216 6 14 1 17 -29 17
-34 0 -37 -3 -62 -57z"/>
<path d="M3998 1546 c-37 -24 -38 -25 -38 -5 0 15 -5 20 -22 17 -23 -3 -23 -5
-23 -153 0 -139 1 -150 19 -153 29 -6 34 12 35 122 1 95 3 102 27 124 30 27
75 29 97 4 13 -14 17 -44 19 -132 3 -103 5 -115 22 -118 28 -6 34 12 35 107 1
149 -21 198 -95 208 -31 4 -47 -1 -76 -21z"/>
</g>
</svg>
